<?xml version="1.0" encoding="UTF-8" standalone="no"?>
<svg
   xmlns:dc="http://purl.org/dc/elements/1.1/"
   xmlns:cc="http://creativecommons.org/ns#"
   xmlns:rdf="http://www.w3.org/1999/02/22-rdf-syntax-ns#"
   xmlns:svg="http://www.w3.org/2000/svg"
   xmlns="http://www.w3.org/2000/svg"
   width="550mm"
   height="550mm"
   viewBox="0 0 550 550"
   version="1.1"
   id="svg46">
  <defs
     id="defs40" />
  <metadata
     id="metadata43">
    <rdf:RDF>
      <cc:Work
         rdf:about="">
        <dc:format>image/svg+xml</dc:format>
        <dc:type
           rdf:resource="http://purl.org/dc/dcmitype/StillImage" />
        <dc:title></dc:title>
      </cc:Work>
    </rdf:RDF>
  </metadata>
  <g
     id="layer1"
     transform="translate(14.999992,237.99999)">
    <path
       d="m 272.5,37 a 12.5,12.499999 0 0 1 -12.49999,12.5 12.5,12.499999 0 0 1 -12.5,-12.5 12.5,12.499999 0 0 1 12.5,-12.5 A 12.5,12.499999 0 0 1 272.5,37 Z M 260.00001,11.99998 A 25.000002,24.999999 0 0 0 234.99999,37 25.000002,24.999999 0 0 0 260.00001,62.00002 25.000002,24.999999 0 0 0 285.00004,37 25.000002,24.999999 0 0 0 260.00001,11.99998 Z m 0,12.10003 A 12.9,12.899999 0 0 1 272.89999,37 12.9,12.899999 0 0 1 260.00001,49.89999 12.9,12.899999 0 0 1 247.10003,37 12.9,12.899999 0 0 1 260.00001,24.10001 Z m -2e-5,-37.10006 A 50.000001,49.999995 0 0 0 209.99996,37 50.000001,49.999995 0 0 0 259.99999,87.00005 50.000001,49.999995 0 0 0 310.00006,37 50.000001,49.999995 0 0 0 259.99999,-13.00005 Z m -0.0372,7.91735 c 0.68628,0 1.24024,0.17777 1.66193,0.5333 0.42582,0.35553 0.73379,0.81235 0.92398,1.37046 0.19428,0.55811 0.29143,1.14102 0.29143,1.74873 v 0.41548 c 0,0.58704 -0.0517,1.18029 -0.15501,1.77973 -0.0992,0.59532 -0.2956,1.14516 -0.58913,1.64952 -0.28937,0.50022 -0.71932,0.9033 -1.28984,1.20922 -0.56637,0.30592 -1.35805,0.45889 -2.37503,0.45889 V 3.10905 c 0.91363,0 1.59163,-0.14263 2.03398,-0.42788 0.44646,-0.28526 0.75653,-0.65733 0.93017,-1.11621 0.17778,-0.46303 0.27697,-0.95498 0.29766,-1.47588 -0.23979,0.28525 -0.52711,0.51676 -0.86196,0.69453 -0.33486,0.17776 -0.69869,0.26665 -1.09141,0.26665 -0.59531,0 -1.08315,-0.14883 -1.46349,-0.44649 -0.38034,-0.29766 -0.66146,-0.67592 -0.84336,-1.13481 -0.1819,-0.46302 -0.27284,-0.94051 -0.27284,-1.43247 0,-0.8599 0.23564,-1.5937 0.70692,-2.20142 0.47543,-0.61185 1.17409,-0.91777 2.096,-0.91777 z m 0,0.94878 c -0.53329,0 -0.9467,0.20257 -1.24023,0.60771 -0.2894,0.40101 -0.43408,0.90124 -0.43408,1.50069 0,0.53743 0.13436,1.02525 0.40307,1.46347 0.27286,0.43822 0.68421,0.65733 1.23404,0.65733 0.39275,0 0.74827,-0.11782 1.06659,-0.35347 0.32247,-0.23564 0.55811,-0.5271 0.70694,-0.87436 v -0.45269 c 0,-0.82269 -0.17568,-1.45314 -0.5271,-1.89136 -0.34727,-0.43822 -0.75034,-0.65732 -1.20923,-0.65732 z M 259.99999,11.6 A 25.400001,25.399998 0 0 1 285.39998,37 25.400001,25.399998 0 0 1 259.99999,62.40001 25.400001,25.399998 0 0 1 234.59999,37 a 25.400001,25.399998 0 0 1 25.4,-25.4 z m -37.53723,20.81733 c 0.68625,0 1.24024,0.17777 1.6619,0.53331 0.42582,0.35553 0.73382,0.81235 0.92398,1.37046 0.19431,0.5581 0.29147,1.14101 0.29147,1.74873 v 0.41547 c 0,0.58705 -0.0517,1.18029 -0.15502,1.77974 -0.0992,0.59531 -0.2956,1.14515 -0.58912,1.64951 -0.28938,0.50023 -0.71933,0.9033 -1.28985,1.20923 -0.56637,0.30592 -1.35805,0.45889 -2.37506,0.45889 v -0.97359 c 0.91366,0 1.59166,-0.14262 2.03399,-0.42788 0.44648,-0.28525 0.75655,-0.65732 0.93019,-1.11621 0.17775,-0.46302 0.27697,-0.95498 0.29766,-1.47588 -0.23979,0.28526 -0.5271,0.51677 -0.86199,0.69453 -0.33485,0.17777 -0.69866,0.26665 -1.0914,0.26665 -0.59532,0 -1.08313,-0.14883 -1.46347,-0.44648 -0.38034,-0.29766 -0.66145,-0.67593 -0.84336,-1.13481 -0.1819,-0.46302 -0.27286,-0.94052 -0.27286,-1.43247 0,-0.8599 0.23566,-1.59371 0.70694,-2.20142 0.47543,-0.61185 1.17409,-0.91778 2.096,-0.91778 z m 75.00004,0 c 0.68631,0 1.24024,0.17777 1.66195,0.53331 0.42582,0.35553 0.73377,0.81235 0.92399,1.37046 0.19428,0.5581 0.2914,1.14101 0.2914,1.74873 v 0.41547 c 0,0.58705 -0.0517,1.18029 -0.15501,1.77974 -0.0992,0.59531 -0.29559,1.14515 -0.58913,1.64951 -0.28934,0.50024 -0.71932,0.90331 -1.28981,1.20923 -0.56639,0.30593 -1.35806,0.45889 -2.37504,0.45889 v -0.97359 c 0.91361,0 1.59161,-0.14262 2.03396,-0.42788 0.44652,-0.28525 0.75656,-0.65732 0.93017,-1.11621 0.17777,-0.46302 0.277,-0.95498 0.29769,-1.47588 -0.2398,0.28526 -0.52713,0.51677 -0.86197,0.69453 -0.33488,0.17777 -0.69864,0.26665 -1.09143,0.26665 -0.59528,0 -1.08314,-0.14882 -1.46348,-0.44648 -0.38034,-0.29765 -0.66147,-0.67593 -0.84337,-1.13481 -0.18189,-0.46302 -0.27283,-0.94052 -0.27283,-1.43247 0,-0.8599 0.23564,-1.59371 0.70693,-2.20142 0.47544,-0.61185 1.1741,-0.91778 2.09598,-0.91778 z m -75.00004,0.94878 c -0.53332,0 -0.9467,0.20257 -1.24023,0.60772 -0.28938,0.40101 -0.43408,0.90124 -0.43408,1.50068 0,0.53744 0.13436,1.02526 0.40307,1.46348 0.27284,0.43821 0.68418,0.65733 1.23404,0.65733 0.39272,0 0.74827,-0.11783 1.06659,-0.35347 0.32247,-0.23564 0.55811,-0.5271 0.70694,-0.87437 V 35.9148 c 0,-0.82269 -0.17571,-1.45315 -0.5271,-1.89136 -0.34727,-0.43822 -0.75033,-0.65733 -1.20923,-0.65733 z m 75.00004,0 c -0.53327,0 -0.9467,0.20258 -1.24021,0.60772 -0.2894,0.40101 -0.4341,0.90124 -0.4341,1.50068 0,0.53744 0.13438,1.02527 0.4031,1.46348 0.27283,0.43822 0.68422,0.65733 1.23404,0.65733 0.39274,0 0.74827,-0.11783 1.0666,-0.35347 0.32243,-0.23565 0.55807,-0.5271 0.70693,-0.87437 V 35.9148 c 0,-0.82269 -0.1757,-1.45314 -0.52711,-1.89136 -0.34724,-0.43821 -0.75036,-0.65733 -1.20925,-0.65733 z m -37.50001,36.55127 c 0.68628,0 1.24024,0.17775 1.66193,0.5333 0.42582,0.35554 0.73379,0.81235 0.92398,1.37046 0.19428,0.55811 0.29143,1.14101 0.29143,1.74871 v 0.4155 c 0,0.58703 -0.0517,1.18028 -0.15501,1.77972 -0.0992,0.59531 -0.2956,1.14517 -0.58913,1.64952 -0.28937,0.50022 -0.71932,0.90331 -1.28984,1.20922 -0.56637,0.30594 -1.35805,0.4589 -2.37503,0.4589 v -0.97359 c 0.91363,0 1.59163,-0.14261 2.03398,-0.42788 0.44646,-0.28525 0.75653,-0.65734 0.93017,-1.1162 0.17778,-0.46302 0.27697,-0.95499 0.29766,-1.4759 -0.23979,0.28527 -0.52711,0.51678 -0.86196,0.69453 -0.33486,0.17777 -0.69869,0.26667 -1.09141,0.26667 -0.59531,0 -1.08315,-0.14882 -1.46349,-0.44651 -0.38034,-0.29763 -0.66146,-0.6759 -0.84336,-1.13479 -0.1819,-0.46303 -0.27284,-0.94052 -0.27284,-1.43249 0,-0.85989 0.23564,-1.59369 0.70692,-2.20141 0.47543,-0.61185 1.17409,-0.91776 2.096,-0.91776 z m 0,0.94877 c -0.53329,0 -0.9467,0.20257 -1.24023,0.60772 -0.2894,0.401 -0.43408,0.90123 -0.43408,1.50069 0,0.53742 0.13436,1.02526 0.40307,1.46347 0.27286,0.43823 0.68421,0.65733 1.23404,0.65733 0.39275,0 0.74827,-0.11782 1.06659,-0.35349 0.32247,-0.23563 0.55811,-0.5271 0.70694,-0.87434 v -0.4527 c 0,-0.8227 -0.17568,-1.45315 -0.5271,-1.89135 -0.34727,-0.43823 -0.75034,-0.65733 -1.20923,-0.65733 z m 0.0372,-108.86596 a 75.000003,74.999996 0 0 0 -75.00008,75.00007 75.000003,74.999996 0 0 0 75.00008,74.99955 75.000003,74.999996 0 0 0 75.00006,-74.99955 75.000003,74.999996 0 0 0 -75.00006,-75.00007 z m -0.006,7.86154 c 0.77308,0 1.40972,0.21497 1.90997,0.64492 0.50435,0.42995 0.75652,1.03973 0.75652,1.82935 0,0.44648 -0.11988,0.84749 -0.35965,1.20302 -0.23979,0.3514 -0.56017,0.62425 -0.96117,0.81856 0.46714,0.19843 0.8392,0.49196 1.11619,0.88056 0.277,0.38861 0.41548,0.83303 0.41548,1.33326 0,0.82682 -0.27699,1.46141 -0.83095,1.90375 -0.54983,0.44236 -1.22989,0.66353 -2.04018,0.66353 -0.81028,0 -1.49243,-0.22117 -2.04639,-0.66353 -0.54986,-0.44234 -0.82476,-1.07693 -0.82476,-1.90375 0,-0.50436 0.13436,-0.94878 0.40307,-1.33326 0.27286,-0.3886 0.64079,-0.68213 1.10381,-0.88056 -0.401,-0.19431 -0.71932,-0.46923 -0.95498,-0.82476 -0.23152,-0.35553 -0.34727,-0.75447 -0.34727,-1.19682 0,-0.78962 0.25011,-1.3994 0.75036,-1.82935 0.50435,-0.42995 1.14101,-0.64492 1.90995,-0.64492 z m 0,0.94258 c -0.45062,0 -0.81442,0.14056 -1.09141,0.42168 -0.27699,0.27698 -0.41548,0.65318 -0.41548,1.12861 0,0.46715 0.13849,0.84129 0.41548,1.12241 0.27699,0.28112 0.64286,0.42168 1.09762,0.42168 0.45061,0 0.81442,-0.14056 1.09141,-0.42168 0.28112,-0.28112 0.42167,-0.65526 0.42167,-1.12241 0,-0.45062 -0.14055,-0.82063 -0.42167,-1.11001 -0.28112,-0.29353 -0.64701,-0.44028 -1.09762,-0.44028 z m -0.006,4.03076 c -0.52504,0 -0.94257,0.15916 -1.25264,0.47749 -0.30594,0.31832 -0.45889,0.72967 -0.45889,1.23403 0,0.5209 0.15295,0.92604 0.45889,1.21543 0.31007,0.28939 0.73173,0.43408 1.26505,0.43408 0.5333,0 0.9529,-0.14469 1.25884,-0.43408 0.30591,-0.28939 0.45886,-0.69453 0.45886,-1.21543 0,-0.50436 -0.16121,-0.91571 -0.48368,-1.23403 -0.31832,-0.31833 -0.7338,-0.47749 -1.24643,-0.47749 z m 0.012,11.76517 A 50.400011,50.400006 0 0 1 310.4,37.00026 50.400011,50.400006 0 0 1 259.99999,87.40028 50.400011,50.400006 0 0 1 209.59997,37.00026 50.400011,50.400006 0 0 1 259.99999,-13.39976 Z m -62.50627,45.76103 c 0.77308,0 1.40972,0.21497 1.90997,0.64492 0.50435,0.42995 0.75653,1.03973 0.75653,1.82934 0,0.44649 -0.11989,0.8475 -0.35965,1.20303 -0.23979,0.3514 -0.56018,0.62425 -0.96118,0.81855 0.46715,0.19844 0.8392,0.49197 1.1162,0.88057 0.27699,0.38861 0.41547,0.83303 0.41547,1.33325 0,0.82683 -0.27699,1.46142 -0.83095,1.90376 -0.54983,0.44236 -1.22989,0.66353 -2.04017,0.66353 -0.81029,0 -1.49244,-0.22117 -2.0464,-0.66353 -0.54985,-0.44234 -0.82476,-1.07693 -0.82476,-1.90376 0,-0.50436 0.13436,-0.94877 0.40307,-1.33325 0.27286,-0.3886 0.64079,-0.68213 1.10382,-0.88057 -0.40101,-0.1943 -0.71935,-0.46922 -0.95499,-0.82475 -0.23151,-0.35553 -0.34727,-0.75447 -0.34727,-1.19683 0,-0.78961 0.25011,-1.39939 0.75036,-1.82934 0.50435,-0.42995 1.14102,-0.64492 1.90995,-0.64492 z m 125.00012,0 c 0.77309,0 1.40972,0.21497 1.90997,0.64492 0.50435,0.42995 0.75652,1.03973 0.75652,1.82934 0,0.44649 -0.11988,0.84802 -0.35965,1.20355 -0.23979,0.3514 -0.56017,0.62374 -0.96117,0.81803 0.46714,0.19845 0.8392,0.49248 1.11619,0.88109 0.277,0.38861 0.41548,0.83251 0.41548,1.33273 0,0.82682 -0.27699,1.46141 -0.83095,1.90376 -0.54983,0.44235 -1.22989,0.66353 -2.04018,0.66353 -0.81028,0 -1.49246,-0.22118 -2.04639,-0.66353 -0.54983,-0.44235 -0.82476,-1.07694 -0.82476,-1.90376 0,-0.50436 0.13436,-0.94826 0.40307,-1.33273 0.27287,-0.38861 0.6408,-0.68264 1.10381,-0.88109 -0.401,-0.19429 -0.71931,-0.46921 -0.95498,-0.82475 -0.23151,-0.35553 -0.34727,-0.75448 -0.34727,-1.19683 0,-0.78961 0.25011,-1.39939 0.75033,-1.82934 0.50438,-0.42995 1.14104,-0.64492 1.90998,-0.64492 z m -125.00012,0.94258 c -0.45061,0 -0.81442,0.14056 -1.09141,0.42168 -0.27699,0.27698 -0.41547,0.65318 -0.41547,1.12861 0,0.46715 0.13848,0.84129 0.41547,1.12241 0.27699,0.28112 0.64286,0.42168 1.09763,0.42168 0.45061,0 0.81441,-0.14056 1.0914,-0.42168 0.28112,-0.28112 0.42167,-0.65526 0.42167,-1.12241 0,-0.45062 -0.14055,-0.82062 -0.42167,-1.11001 -0.28112,-0.29353 -0.64701,-0.44028 -1.09762,-0.44028 z m 125.00012,0 c -0.45062,0 -0.81442,0.14056 -1.09141,0.42168 -0.27698,0.27698 -0.41548,0.65319 -0.41548,1.12861 0,0.46715 0.1385,0.84129 0.41548,1.12241 0.277,0.28112 0.64286,0.42168 1.09762,0.42168 0.45062,0 0.81443,-0.14056 1.09141,-0.42168 0.28112,-0.28112 0.42168,-0.65526 0.42168,-1.12241 0,-0.45062 -0.14055,-0.82062 -0.42168,-1.11001 -0.28112,-0.29352 -0.64701,-0.44028 -1.09762,-0.44028 z m -125.00631,4.03076 c -0.52504,0 -0.94258,0.15916 -1.25265,0.47749 -0.30593,0.31832 -0.45889,0.72967 -0.45889,1.23403 0,0.5209 0.15296,0.92604 0.45889,1.21543 0.31007,0.28939 0.73174,0.43408 1.26506,0.43408 0.53329,0 0.95289,-0.14469 1.25883,-0.43408 0.30591,-0.28939 0.45887,-0.69453 0.45887,-1.21543 0,-0.50436 -0.16121,-0.91571 -0.48369,-1.23403 -0.31832,-0.31833 -0.73379,-0.47749 -1.24642,-0.47749 z m 125.00012,0 c -0.52503,0 -0.94258,0.15916 -1.25265,0.47749 -0.30591,0.31832 -0.45892,0.72967 -0.45892,1.23403 0,0.5209 0.15301,0.92604 0.45892,1.21543 0.31007,0.28939 0.73173,0.4346 1.26505,0.4346 0.53331,0 0.9529,-0.14521 1.25882,-0.4346 0.30593,-0.28939 0.45888,-0.69453 0.45888,-1.21543 0,-0.50436 -0.1612,-0.91571 -0.48367,-1.23403 -0.31833,-0.31833 -0.73381,-0.47749 -1.24643,-0.47749 z m -62.49387,57.52671 c 0.77308,0 1.40972,0.21497 1.90997,0.64492 0.50435,0.42995 0.75652,1.03973 0.75652,1.82936 0,0.44648 -0.11988,0.84748 -0.35965,1.20303 -0.23979,0.35139 -0.56017,0.62423 -0.96117,0.81854 0.46714,0.19844 0.8392,0.49197 1.11619,0.88056 0.277,0.38862 0.41548,0.83304 0.41548,1.33326 0,0.82683 -0.27699,1.4614 -0.83095,1.90376 -0.54983,0.44236 -1.22989,0.66352 -2.04018,0.66352 -0.81028,0 -1.49243,-0.22116 -2.04639,-0.66352 -0.54986,-0.44236 -0.82476,-1.07693 -0.82476,-1.90376 0,-0.50437 0.13436,-0.94877 0.40307,-1.33326 0.27286,-0.38859 0.64079,-0.68212 1.10381,-0.88056 -0.401,-0.19431 -0.71932,-0.46921 -0.95498,-0.82476 -0.23152,-0.35552 -0.34727,-0.75446 -0.34727,-1.19681 0,-0.78963 0.25011,-1.39941 0.75036,-1.82936 0.50435,-0.42995 1.14101,-0.64492 1.90995,-0.64492 z m 0,0.94258 c -0.45062,0 -0.81442,0.14057 -1.09141,0.42169 -0.27699,0.27699 -0.41548,0.6532 -0.41548,1.12861 0,0.46715 0.13849,0.84129 0.41548,1.12241 0.27699,0.28112 0.64286,0.42167 1.09762,0.42167 0.45061,0 0.81442,-0.14055 1.09141,-0.42167 0.28112,-0.28112 0.42167,-0.65526 0.42167,-1.12241 0,-0.45064 -0.14055,-0.82063 -0.42167,-1.11001 -0.28112,-0.29353 -0.64701,-0.44029 -1.09762,-0.44029 z m -0.006,4.03077 c -0.52504,0 -0.94257,0.15917 -1.25264,0.47749 -0.30594,0.31832 -0.45889,0.72967 -0.45889,1.23404 0,0.52089 0.15295,0.92604 0.45889,1.21542 0.31007,0.28937 0.73173,0.43407 1.26505,0.43407 0.5333,0 0.9529,-0.1447 1.25884,-0.43407 0.30591,-0.28938 0.45886,-0.69453 0.45886,-1.21542 0,-0.50437 -0.16121,-0.91572 -0.48368,-1.23404 -0.31832,-0.31832 -0.7338,-0.47749 -1.24643,-0.47749 z m 0.0119,-162.83476 A 99.999998,99.999988 0 0 0 160.00015,37 99.999998,99.999988 0 0 0 259.9997,137.0001 99.999998,99.999988 0 0 0 359.99979,37 99.999998,99.999988 0 0 0 259.9997,-63.00009 Z m -3.05096,7.98554 h 6.10195 v 0.64494 l -3.7393,8.38398 h -1.20923 l 3.73309,-8.08633 h -4.88651 z m 3.05096,16.6145 A 75.400001,75.399993 0 0 1 335.39974,37 75.400001,75.399993 0 0 1 259.99968,112.40005 75.400001,75.399993 0 0 1 184.60016,37 75.400001,75.399993 0 0 1 259.99968,-38.40005 Z m -90.55054,70.88559 h 6.10195 v 0.64493 l -3.7393,8.38398 h -1.20923 l 3.73311,-8.08633 h -4.88653 z m 174.99966,0 h 6.10196 v 0.64493 l -3.73932,8.38398 h -1.20923 l 3.73311,-8.08633 h -4.88651 z m -87.50008,87.50008 h 6.10195 v 0.64493 l -3.7393,8.38398 h -1.20923 l 3.73309,-8.08633 h -4.88651 z m 3.05099,-208.38546 A 125.39999,125.39996 0 0 0 134.60018,36.99974 125.39999,125.39996 0 0 0 259.99976,162.39984 125.39999,125.39996 0 0 0 385.39985,36.99974 125.39999,125.39996 0 0 0 259.99976,-88.39984 Z m 0,0.39997 A 125,124.99999 0 0 1 384.99988,36.99974 125,124.99999 0 0 1 259.99976,161.99987 125,124.99999 0 0 1 135.00015,36.99974 125,124.99999 0 0 1 259.99976,-87.99987 Z m 5.3e-4,-25.39999 A 150.39997,150.39996 0 0 0 109.60016,37.00026 150.39997,150.39996 0 0 0 260.00027,187.39984 150.39997,150.39996 0 0 0 410.39985,37.00026 150.39997,150.39996 0 0 0 260.00027,-113.39986 Z m -5.3e-4,0.39997 A 150,149.99999 0 0 1 409.99988,37.00026 150,149.99999 0 0 1 259.99975,186.99987 150,149.99999 0 0 1 110.00013,37.00026 150,149.99999 0 0 1 259.99975,-112.99989 Z m 2.4e-4,-25.39999 A 175.39997,175.39995 0 0 0 84.599869,36.99973 175.39997,175.39995 0 0 0 259.99999,212.39987 175.39997,175.39995 0 0 0 435.40015,36.99973 175.39997,175.39995 0 0 0 259.99999,-138.39988 Z m 0,0.39996 A 175.00001,174.99999 0 0 1 435.00015,36.99973 175.00001,174.99999 0 0 1 259.99999,211.9999 175.00001,174.99999 0 0 1 84.999848,36.99973 175.00001,174.99999 0 0 1 259.99999,-137.99992 Z m 2e-5,-25.39999 A 200.39997,200.39995 0 0 0 59.599835,36.99976 200.39997,200.39995 0 0 0 260.00001,237.3999 200.39997,200.39995 0 0 0 460.40019,36.99976 200.39997,200.39995 0 0 0 260.00001,-163.39991 Z m 0,0.4 A 200.00001,199.99999 0 0 1 459.99968,36.99976 200.00001,199.99999 0 0 1 260.00001,236.99993 200.00001,199.99999 0 0 1 59.999805,36.99976 200.00001,199.99999 0 0 1 260.00001,-162.99991 Z m 2.5e-4,-25.40002 A 225.39997,225.39994 0 0 0 34.600085,36.99975 225.39997,225.39994 0 0 0 260.00026,262.39993 225.39997,225.39994 0 0 0 485.39994,36.99975 225.39997,225.39994 0 0 0 260.00026,-188.39993 Z m 0,0.39997 A 224.99999,224.99996 0 0 1 484.99995,36.99975 224.99999,224.99996 0 0 1 260.00024,261.99996 224.99999,224.99996 0 0 1 35.000035,36.99975 224.99999,224.99996 0 0 1 260.00024,-187.99996 Z m -4.9e-4,-25.4 A 250.39997,250.39994 0 0 0 9.600055,37.00025 250.39997,250.39994 0 0 0 259.99975,287.39996 250.39997,250.39994 0 0 0 510.39994,37.00025 250.39997,250.39994 0 0 0 259.99975,-213.39996 Z m 0,0.39997 A 249.99999,249.99996 0 0 1 509.99997,37.00025 249.99999,249.99996 0 0 1 259.99975,286.99999 249.99999,249.99996 0 0 1 10.000025,37.00025 249.99999,249.99996 0 0 1 259.99975,-212.99999 Z M 375.35255,38.5131 q 0,1.28364 -0.71936,2.17661 -0.71312,0.89297 -2.08357,0.89297 -0.97361,0 -1.61853,-0.5147 -0.64489,-0.5209 -0.96737,-1.31465 -0.31626,-0.79995 -0.31626,-1.63711 v -0.5395 q 0,-1.27124 0.35346,-2.45567 0.35968,-1.18442 1.29607,-1.94096 0.93636,-0.76275 2.6789,-0.76275 h 0.0992 v 0.97359 q -1.203,0 -1.87274,0.42168 -0.66352,0.42168 -0.99219,1.0976 -0.32247,0.66973 -0.39069,1.43868 0.71936,-0.81236 1.94099,-0.81236 0.89916,0 1.46965,0.43408 0.57671,0.43409 0.84958,1.12242 0.27287,0.68213 0.27287,1.42007 z m -4.55167,-0.35967 q 0,1.20302 0.53331,1.84175 0.5395,0.63872 1.21543,0.63872 0.79376,0 1.22783,-0.57671 0.44026,-0.58291 0.44026,-1.48828 0,-0.80616 -0.40305,-1.44488 -0.40308,-0.63872 -1.24024,-0.63872 -0.6015,0 -1.09141,0.35967 -0.4899,0.35967 -0.68213,0.87437 z m 25.10543,-0.99839 -0.9178,-0.23564 0.45268,-4.49585 h 4.63229 v 1.0604 h -3.65868 l -0.27287,2.45566 q 0.68214,-0.39067 1.50689,-0.39067 1.24643,0 1.96577,0.82476 0.72555,0.81855 0.72555,2.20141 0,1.29605 -0.70695,2.15181 -0.70694,0.84956 -2.15179,0.84956 -1.09761,0 -1.89758,-0.61392 -0.79994,-0.62011 -0.92397,-1.88515 h 1.09141 q 0.21703,1.55649 1.73014,1.55649 0.81234,0 1.25882,-0.5519 0.44649,-0.55191 0.44649,-1.49448 0,-0.84957 -0.47128,-1.42627 -0.46511,-0.58291 -1.33326,-0.58291 -0.5767,0 -0.87437,0.15502 -0.29766,0.15503 -0.60149,0.42168 z m 23.33184,1.5875 4.04319,-6.25698 h 1.22163 v 5.99033 h 1.25884 v 0.94258 h -1.25884 v 2.096 h -1.14723 v -2.096 h -4.11759 z m 1.30227,-0.26665 h 2.81532 v -4.43383 l -0.14261,0.25424 z m 25.93326,-1.0976 v -0.94258 h 0.84336 q 0.88678,-0.006 1.32086,-0.44649 0.43407,-0.44028 0.43407,-1.0976 0,-1.5875 -1.57509,-1.5875 -0.73173,0 -1.18443,0.42168 -0.45268,0.41548 -0.45268,1.12241 h -1.14721 q 0,-1.0356 0.76274,-1.76113 0.76894,-0.72554 2.02158,-0.72554 1.22163,0 1.97197,0.65112 0.75655,0.64492 0.75655,1.90376 0,0.5023 -0.34108,1.0728 -0.33486,0.57051 -1.079,0.88677 0.89919,0.29146 1.22783,0.89917 0.32866,0.60772 0.32866,1.22163 0,1.26504 -0.81854,1.95337 -0.81856,0.68833 -2.0402,0.68833 -1.17821,0 -2.02157,-0.65112 -0.84336,-0.65733 -0.84336,-1.86035 h 1.14723 q 0,0.71313 0.45886,1.14101 0.46508,0.42788 1.25883,0.42788 0.78756,0 1.24645,-0.41547 0.4589,-0.41548 0.4589,-1.25884 0,-0.84336 -0.52091,-1.24024 -0.52089,-0.40307 -1.39526,-0.40307 z m 29.06797,3.25561 v 0.94258 h -5.90974 v -0.82476 l 3.0634,-3.41064 q 0.75653,-0.85576 1.01698,-1.35806 0.26665,-0.50229 0.26665,-1.01079 0,-0.66352 -0.41548,-1.13481 -0.40928,-0.47129 -1.1596,-0.47129 -0.90538,0 -1.35188,0.5147 -0.44648,0.51469 -0.44648,1.32085 h -1.1472 q 0,-1.14102 0.75033,-1.95957 0.75036,-0.81856 2.19523,-0.81856 1.27742,0 1.99678,0.66353 0.72554,0.66352 0.72554,1.74873 0,0.79375 -0.4899,1.5999 -0.48988,0.79995 -1.20304,1.5751 l -2.41845,2.62309 z m 23.68846,-8.17314 v 9.07852 h -1.14722 v -7.64605 l -2.31305,0.84336 V 33.701 l 3.28044,-1.24024 z M 150.35254,38.5131 q 0,1.28364 -0.71934,2.17661 -0.71313,0.89297 -2.08359,0.89297 -0.97359,0 -1.61851,-0.5147 -0.64492,-0.5209 -0.96738,-1.31465 -0.31626,-0.79995 -0.31626,-1.63711 v -0.5395 q 0,-1.27124 0.35347,-2.45567 0.35966,-1.18442 1.29604,-1.94096 0.93638,-0.76275 2.67891,-0.76275 h 0.0992 v 0.97359 q -1.20302,0 -1.87275,0.42168 -0.66352,0.42168 -0.99219,1.0976 -0.32246,0.66973 -0.39067,1.43868 0.71934,-0.81236 1.94097,-0.81236 0.89917,0 1.46967,0.43408 0.57671,0.43409 0.84956,1.12242 0.27286,0.68213 0.27286,1.42007 z m -4.55166,-0.35967 q 0,1.20302 0.5333,1.84175 0.5395,0.63872 1.21543,0.63872 0.79375,0 1.22783,-0.57671 0.44028,-0.58291 0.44028,-1.48828 0,-0.80616 -0.40307,-1.44488 -0.40308,-0.63872 -1.24024,-0.63872 -0.60151,0 -1.0914,0.35967 -0.4899,0.35967 -0.68213,0.87437 z m -24.89459,-0.9984 -0.91777,-0.23565 0.45268,-4.49584 h 4.63228 v 1.0604 h -3.65869 l -0.27286,2.45566 q 0.68213,-0.39067 1.50689,-0.39067 1.24643,0 1.96577,0.82475 0.72554,0.81856 0.72554,2.20142 0,1.29604 -0.70694,2.1518 -0.70693,0.84956 -2.1518,0.84956 -1.09761,0 -1.89756,-0.61391 -0.79995,-0.62012 -0.92398,-1.88516 h 1.09141 q 0.21704,1.5565 1.73013,1.5565 0.81235,0 1.25884,-0.55191 0.44648,-0.5519 0.44648,-1.49448 0,-0.84956 -0.47129,-1.42627 -0.46509,-0.58291 -1.33325,-0.58291 -0.57671,0 -0.87437,0.15503 -0.29765,0.15503 -0.60151,0.42168 z m -26.668108,1.5875 4.043161,-6.25698 h 1.221629 v 5.99033 h 1.258838 v 0.94258 h -1.258838 v 2.09599 h -1.147209 v -2.09599 h -4.117581 z m 1.30224,-0.26665 h 2.815341 v -4.43384 l -0.142632,0.25425 z M 71.473705,37.37827 v -0.94258 h 0.843356 q 0.88677,-0.006 1.320851,-0.44648 0.43408,-0.44028 0.43408,-1.09761 0,-1.5875 -1.575101,-1.5875 -0.731736,0 -1.184416,0.42168 -0.45269,0.41548 -0.45269,1.12241 h -1.14721 q 0,-1.03559 0.76274,-1.76113 0.76895,-0.72554 2.021576,-0.72554 1.221631,0 1.971982,0.65113 0.756539,0.64492 0.756539,1.90376 0,0.50229 -0.341069,1.0728 -0.334862,0.57051 -1.079,0.88677 0.899168,0.29145 1.227828,0.89917 0.32866,0.60771 0.32866,1.22163 0,1.26504 -0.81855,1.95337 -0.81856,0.68833 -2.040188,0.68833 -1.178218,0 -2.021578,-0.65113 -0.84336,-0.65732 -0.84336,-1.86035 h 1.14722 q 0,0.71314 0.45889,1.14102 0.46508,0.42788 1.258828,0.42788 0.787548,0 1.246438,-0.41548 0.458891,-0.41548 0.458891,-1.25884 0,-0.84336 -0.520901,-1.24023 -0.520898,-0.40308 -1.395266,-0.40308 z m -20.93204,3.25562 v 0.94257 h -5.90972 v -0.82475 l 3.06338,-3.41065 q 0.75654,-0.85576 1.01699,-1.35805 0.26664,-0.5023 0.26664,-1.01079 0,-0.66353 -0.41547,-1.13482 -0.40928,-0.47129 -1.15962,-0.47129 -0.90537,0 -1.35185,0.5147 -0.4465,0.5147 -0.4465,1.32085 h -1.1472 q 0,-1.14102 0.75033,-1.95957 0.75034,-0.81855 2.19522,-0.81855 1.27744,0 1.99678,0.66352 0.72553,0.66353 0.72553,1.74873 0,0.79375 -0.4899,1.5999 -0.48988,0.79995 -1.20301,1.5751 l -2.41846,2.6231 z m -26.31153,-8.17313 v 9.07852 h -1.14723 v -7.64605 l -2.31303,0.84336 V 33.701 l 3.28042,-1.24024 z M 262.85254,151.0131 q 0,1.28365 -0.71934,2.17662 -0.71313,0.89297 -2.08359,0.89297 -0.97359,0 -1.61851,-0.51469 -0.64492,-0.52092 -0.96738,-1.31467 -0.31626,-0.79994 -0.31626,-1.63711 v -0.53951 q 0,-1.27121 0.35347,-2.45565 0.35966,-1.18443 1.29604,-1.94096 0.93638,-0.76276 2.67891,-0.76276 h 0.0992 v 0.97358 q -1.20302,0 -1.87275,0.4217 -0.66352,0.42166 -0.99219,1.09759 -0.32246,0.66974 -0.39067,1.43868 0.71934,-0.81235 1.94097,-0.81235 0.89917,0 1.46967,0.43407 0.57671,0.4341 0.84956,1.12242 0.27286,0.68215 0.27286,1.42007 z m -4.55166,-0.35968 q 0,1.20304 0.5333,1.84177 0.5395,0.6387 1.21543,0.6387 0.79375,0 1.22783,-0.57671 0.44028,-0.5829 0.44028,-1.48825 0,-0.80619 -0.40307,-1.44489 -0.40308,-0.63873 -1.24024,-0.63873 -0.60151,0 -1.0914,0.35967 -0.4899,0.35968 -0.68213,0.87437 z m 0.10541,24.0016 -0.91777,-0.23564 0.45268,-4.49585 h 4.63228 v 1.0604 h -3.65869 l -0.27286,2.45565 q 0.68213,-0.39066 1.50689,-0.39066 1.24643,0 1.96577,0.82476 0.72554,0.81854 0.72554,2.20141 0,1.29604 -0.70694,2.15181 -0.70693,0.84955 -2.1518,0.84955 -1.09761,0 -1.89756,-0.61391 -0.79995,-0.62011 -0.92398,-1.88516 h 1.09141 q 0.21704,1.55649 1.73013,1.55649 0.81235,0 1.25884,-0.55189 0.44648,-0.55193 0.44648,-1.4945 0,-0.84955 -0.47129,-1.42627 -0.46509,-0.5829 -1.33325,-0.5829 -0.57671,0 -0.87437,0.15502 -0.29765,0.15505 -0.60151,0.42169 z m -1.66813,26.58751 4.04316,-6.257 h 1.22163 v 5.99035 h 1.25884 v 0.94258 h -1.25884 v 2.09597 h -1.14722 v -2.09597 h -4.11757 z m 1.30224,-0.26665 h 2.81533 v -4.43384 l -0.14262,0.25424 z m 0.93328,23.90235 v -0.94258 h 0.84336 q 0.88677,-0.006 1.32085,-0.44648 0.43408,-0.4403 0.43408,-1.0976 0,-1.5875 -1.5751,-1.5875 -0.73174,0 -1.18442,0.42167 -0.45269,0.41547 -0.45269,1.12241 h -1.14721 q 0,-1.0356 0.76274,-1.76114 0.76895,-0.72552 2.02158,-0.72552 1.22163,0 1.97197,0.65112 0.75655,0.64492 0.75655,1.90375 0,0.50231 -0.34107,1.07281 -0.33486,0.57052 -1.079,0.88678 0.89917,0.29143 1.22783,0.89916 0.32866,0.60772 0.32866,1.22163 0,1.26503 -0.81855,1.95337 -0.81856,0.68834 -2.04019,0.68834 -1.17822,0 -2.02158,-0.65114 -0.84336,-0.65733 -0.84336,-1.86034 h 1.14722 q 0,0.71313 0.45889,1.14101 0.46508,0.42789 1.25883,0.42789 0.78755,0 1.24644,-0.4155 0.45889,-0.41545 0.45889,-1.25881 0,-0.84336 -0.5209,-1.24026 -0.5209,-0.40307 -1.39527,-0.40307 z m 4.06802,28.25565 v 0.94258 h -5.90972 v -0.82476 l 3.06338,-3.41064 q 0.75654,-0.85577 1.01699,-1.35805 0.26665,-0.50232 0.26665,-1.01079 0,-0.66352 -0.41548,-1.13483 -0.40927,-0.47127 -1.15962,-0.47127 -0.90537,0 -1.35185,0.51469 -0.44649,0.5147 -0.44649,1.32083 h -1.14721 q 0,-1.14099 0.75034,-1.95956 0.75034,-0.81854 2.19521,-0.81854 1.27744,0 1.99678,0.66352 0.72554,0.66352 0.72554,1.74874 0,0.79375 -0.48989,1.59988 -0.4899,0.79997 -1.20303,1.57512 l -2.41846,2.62308 z m -1.31159,16.82686 v 9.07852 h -1.14722 v -7.64606 l -2.31304,0.84336 v -1.03558 l 3.28042,-1.24024 z m 1.12243,-343.94765 q 0,1.28365 -0.71934,2.17661 -0.71313,0.89298 -2.08359,0.89298 -0.97359,0 -1.61851,-0.51471 -0.64492,-0.52089 -0.96738,-1.31464 -0.31626,-0.79996 -0.31626,-1.63711 v -0.5395 q 0,-1.27125 0.35347,-2.45567 0.35966,-1.18442 1.29604,-1.94096 0.93638,-0.76276 2.67891,-0.76276 h 0.0992 v 0.97359 q -1.20302,0 -1.87275,0.42168 -0.66352,0.42168 -0.99219,1.0976 -0.32246,0.66973 -0.39067,1.43868 0.71934,-0.81235 1.94097,-0.81235 0.89917,0 1.46967,0.43407 0.57671,0.4341 0.84956,1.12243 0.27286,0.68213 0.27286,1.42006 z m -4.55166,-0.35967 q 0,1.20303 0.5333,1.84176 0.5395,0.63872 1.21543,0.63872 0.79375,0 1.22783,-0.57671 0.44028,-0.58291 0.44028,-1.48828 0,-0.80616 -0.40307,-1.44488 -0.40308,-0.63872 -1.24024,-0.63872 -0.60151,0 -1.0914,0.35967 -0.4899,0.35966 -0.68213,0.87436 z m 0.10541,-25.99841 -0.91777,-0.23564 0.45268,-4.49585 h 4.63228 v 1.0604 h -3.65869 l -0.27286,2.45566 q 0.68213,-0.39067 1.50689,-0.39067 1.24643,0 1.96577,0.82476 0.72554,0.81856 0.72554,2.20141 0,1.29604 -0.70694,2.1518 -0.70693,0.84956 -2.1518,0.84956 -1.09761,0 -1.89756,-0.61391 -0.79995,-0.62011 -0.92398,-1.88516 h 1.09141 q 0.21704,1.5565 1.73013,1.5565 0.81235,0 1.25884,-0.55191 0.44648,-0.5519 0.44648,-1.49448 0,-0.84955 -0.47129,-1.42627 -0.46509,-0.58291 -1.33325,-0.58291 -0.57671,0 -0.87437,0.15503 -0.29765,0.15503 -0.60151,0.42168 z m -1.66813,-23.41249 4.04316,-6.25698 h 1.22163 v 5.99033 h 1.25884 v 0.94258 h -1.25884 v 2.09599 h -1.14722 v -2.09599 h -4.11757 z m 1.30224,-0.26665 h 2.81533 v -4.43384 l -0.14262,0.25425 z m 0.93328,-26.09761 v -0.94258 h 0.84336 q 0.88677,-0.006 1.32085,-0.44649 0.43408,-0.44028 0.43408,-1.09761 0,-1.5875 -1.5751,-1.5875 -0.73174,0 -1.18442,0.42168 -0.45269,0.41548 -0.45269,1.12242 h -1.14721 q 0,-1.0356 0.76274,-1.76114 0.76895,-0.72553 2.02158,-0.72553 1.22163,0 1.97197,0.65112 0.75655,0.64492 0.75655,1.90376 0,0.50229 -0.34107,1.0728 -0.33486,0.57051 -1.079,0.88677 0.89917,0.29145 1.22783,0.89917 0.32866,0.60771 0.32866,1.22163 0,1.26504 -0.81855,1.95337 -0.81856,0.68833 -2.04019,0.68833 -1.17822,0 -2.02158,-0.65112 -0.84336,-0.65733 -0.84336,-1.86036 h 1.14722 q 0,0.71314 0.45889,1.14102 0.46508,0.42788 1.25883,0.42788 0.78755,0 1.24644,-0.41548 0.45889,-0.41548 0.45889,-1.25884 0,-0.84336 -0.5209,-1.24023 -0.5209,-0.40307 -1.39527,-0.40307 z m 4.06799,-21.74438 v 0.94258 h -5.90972 v -0.82476 l 3.06338,-3.41064 q 0.75654,-0.85576 1.01699,-1.35806 0.26665,-0.5023 0.26665,-1.01079 0,-0.66353 -0.41548,-1.13482 -0.40928,-0.47129 -1.15962,-0.47129 -0.90537,0 -1.35185,0.5147 -0.44649,0.5147 -0.44649,1.32085 h -1.14721 q 0,-1.14101 0.75034,-1.95957 0.75034,-0.81855 2.19521,-0.81855 1.27744,0 1.99678,0.66352 0.72554,0.66353 0.72554,1.74873 0,0.79375 -0.4899,1.59991 -0.48989,0.79994 -1.20302,1.57509 l -2.41846,2.6231 z m -1.31156,-33.17314 v 9.07852 h -1.14722 v -7.64605 l -2.31304,0.84336 v -1.03559 l 3.28042,-1.24024 z"
       style="fill:#000000;fill-opacity:1;fill-rule:nonzero;stroke:none;stroke-width:0.49999997;stroke-linecap:round;stroke-linejoin:round;stroke-miterlimit:4;stroke-dasharray:none;stroke-opacity:1;paint-order:normal"
       id="path1462-6-7" />
  </g>
</svg>
